<svg width="1037" height="250" viewBox="0 0 1037 250" fill="none" xmlns="http://www.w3.org/2000/svg">
<path d="M135.278 81.8939C144.501 81.8939 153.582 79.6228 161.719 75.2813C165.169 73.4405 168.445 71.2745 171.243 68.5433C173.857 65.9925 177.029 62.5868 178.884 59.4829C179.31 58.7711 179.714 57.9947 180.097 57.1755C185.015 46.6493 185 34.6185 185 22.9999H58.0097C52.3224 22.9999 46.664 23.8097 41.2049 25.4047L37.6464 26.4445C33.6417 27.6146 29.8589 29.4409 26.452 31.849L22.7874 34.4393C17.1644 38.4138 12.381 43.4589 8.71146 49.2854C5.97655 53.628 3.89523 58.3491 2.53436 63.2974L2.18889 64.5536C0.736221 69.8356 0 75.2889 0 80.7671V129.322L9.6832 111.601C15.3805 102.005 23.038 93.4684 33.0772 88.5935C33.7943 88.2453 34.4943 87.9201 35.1653 87.6269C46.276 82.7726 58.6332 81.8939 70.7581 81.8939H135.278Z" fill="url(#paint0_linear_144_89)"/>
<path d="M57.1273 152.117C57.1273 160.973 54.9174 169.689 50.6979 177.476C48.9225 180.752 46.8356 183.859 44.2139 186.507C41.7356 189.011 38.4143 192.061 35.3886 193.842C31.9384 195.872 26.2768 188.357 21.7417 180.897C16.9203 172.966 9.17393 167.024 0.000144958 165.612V78.4353C0.000144958 72.9822 0.788055 67.5577 2.33946 62.3299L3.32172 59.02C4.46957 55.1521 6.25701 51.5038 8.60992 48.2263L11.0374 44.8449C14.9316 39.4205 19.8571 34.8172 25.5321 31.2981C29.7216 28.7003 34.2669 26.7261 39.0251 25.4377L40.3251 25.0857C45.4374 23.7014 50.7106 23.0001 56.0071 23.0001H103.132L85.9436 32.2479C76.635 37.6891 68.3222 45.0231 63.5708 54.702C63.2538 55.3478 62.9572 55.9785 62.6883 56.5843C57.9847 67.184 57.1273 79.0079 57.1273 90.6044V152.117Z" fill="url(#paint1_linear_144_89)"/>
<path d="M135.278 167.181C144.501 167.181 153.582 169.452 161.719 173.793C165.169 175.634 168.445 177.8 171.243 180.531C173.857 183.082 177.029 186.488 178.884 189.592C179.31 190.304 179.714 191.08 180.097 191.899C185.015 202.425 185 214.456 185 226.075H58.0097C52.3224 226.075 46.664 225.265 41.2049 223.67L37.6464 222.63C33.6417 221.46 29.8589 219.634 26.452 217.226L22.7874 214.635C17.1644 210.661 12.381 205.616 8.71146 199.789C5.97655 195.447 3.89525 190.726 2.53438 185.777L2.18889 184.521C0.736221 179.239 0 173.786 0 168.308V119.753L9.6832 137.473C15.3805 147.07 23.038 155.606 33.0772 160.481C33.7943 160.829 34.4943 161.155 35.1653 161.448C46.276 166.302 58.6332 167.181 70.7581 167.181H135.278Z" fill="url(#paint2_linear_144_89)"/>
<path d="M319.4 202C309.667 202 300.733 200.267 292.6 196.8C284.467 193.333 277.4 188.4 271.4 182C265.4 175.467 260.733 167.8 257.4 159C254.2 150.2 252.6 140.533 252.6 130C252.6 120 254.333 110.733 257.8 102.2C261.4 93.5333 266.333 85.9333 272.6 79.4C278.867 72.8667 286.133 67.8 294.4 64.2C302.667 60.6 311.6 58.8 321.2 58.8C328 58.8 334.6 59.8667 341 62C347.533 64 353.4 66.8667 358.6 70.6C363.933 74.2 368.267 78.3333 371.6 83L357.2 98C353.333 94.1333 349.4 90.9333 345.4 88.4C341.533 85.7333 337.533 83.7333 333.4 82.4C329.4 81.0667 325.333 80.4 321.2 80.4C314.667 80.4 308.533 81.6667 302.8 84.2C297.2 86.6 292.267 90 288 94.4C283.867 98.8 280.6 104.067 278.2 110.2C275.8 116.2 274.6 122.8 274.6 130C274.6 137.6 275.733 144.533 278 150.8C280.4 156.933 283.733 162.2 288 166.6C292.267 171 297.333 174.4 303.2 176.8C309.2 179.067 315.8 180.2 323 180.2C327.4 180.2 331.733 179.6 336 178.4C340.267 177.2 344.267 175.467 348 173.2C351.733 170.933 355.133 168.267 358.2 165.2L369 182.8C365.933 186.4 361.733 189.667 356.4 192.6C351.2 195.533 345.333 197.867 338.8 199.6C332.4 201.2 325.933 202 319.4 202ZM393.142 200V95H413.942V128L411.942 120C413.409 114.933 415.876 110.333 419.342 106.2C422.942 102.067 427.009 98.8 431.542 96.4C436.209 94 441.009 92.8 445.942 92.8C448.209 92.8 450.342 93 452.342 93.4C454.476 93.8 456.142 94.2667 457.342 94.8L451.942 117.2C450.342 116.533 448.542 116 446.542 115.6C444.676 115.067 442.809 114.8 440.942 114.8C437.342 114.8 433.876 115.533 430.542 117C427.342 118.333 424.476 120.267 421.942 122.8C419.542 125.2 417.609 128.067 416.142 131.4C414.676 134.6 413.942 138.133 413.942 142V200H393.142ZM477.206 200V95H497.806V200H477.206ZM487.206 71.8C482.806 71.8 479.406 70.6667 477.006 68.4C474.606 66.1333 473.406 62.9333 473.406 58.8C473.406 54.9333 474.606 51.8 477.006 49.4C479.54 47 482.94 45.8 487.206 45.8C491.606 45.8 495.006 46.9333 497.406 49.2C499.806 51.4667 501.006 54.6667 501.006 58.8C501.006 62.6667 499.74 65.8 497.206 68.2C494.806 70.6 491.473 71.8 487.206 71.8ZM529.07 200V95H549.87V117.4L546.07 119.8C547.137 116.333 548.804 113 551.07 109.8C553.47 106.6 556.337 103.8 559.67 101.4C563.137 98.8667 566.804 96.8667 570.67 95.4C574.67 93.9333 578.737 93.2 582.87 93.2C588.87 93.2 594.137 94.2 598.67 96.2C603.204 98.2 606.937 101.2 609.87 105.2C612.804 109.2 614.937 114.2 616.27 120.2L613.07 119.4L614.47 116C615.937 112.933 617.937 110.067 620.47 107.4C623.137 104.6 626.137 102.133 629.47 100C632.804 97.8667 636.337 96.2 640.07 95C643.804 93.8 647.47 93.2 651.07 93.2C658.937 93.2 665.404 94.8 670.47 98C675.67 101.2 679.537 106.067 682.07 112.6C684.737 119.133 686.07 127.267 686.07 137V200H665.27V138.2C665.27 132.2 664.47 127.333 662.87 123.6C661.404 119.733 659.137 116.867 656.07 115C653.004 113.133 649.07 112.2 644.27 112.2C640.537 112.2 637.004 112.867 633.67 114.2C630.47 115.4 627.67 117.133 625.27 119.4C622.87 121.667 621.004 124.333 619.67 127.4C618.337 130.333 617.67 133.6 617.67 137.2V200H596.87V137.8C596.87 132.333 596.07 127.733 594.47 124C592.87 120.133 590.537 117.2 587.47 115.2C584.404 113.2 580.67 112.2 576.27 112.2C572.537 112.2 569.07 112.867 565.87 114.2C562.67 115.4 559.87 117.133 557.47 119.4C555.07 121.533 553.204 124.133 551.87 127.2C550.537 130.133 549.87 133.333 549.87 136.8V200H529.07ZM748.65 202C739.85 202 731.917 200.467 724.85 197.4C717.783 194.333 711.917 189.8 707.25 183.8L721.25 171.8C725.25 176.467 729.583 179.867 734.25 182C739.05 184 744.45 185 750.45 185C752.85 185 755.05 184.733 757.05 184.2C759.183 183.533 760.983 182.6 762.45 181.4C764.05 180.2 765.25 178.8 766.05 177.2C766.85 175.467 767.25 173.6 767.25 171.6C767.25 168.133 765.983 165.333 763.45 163.2C762.117 162.267 759.983 161.267 757.05 160.2C754.25 159 750.583 157.8 746.05 156.6C738.317 154.6 731.983 152.333 727.05 149.8C722.117 147.267 718.317 144.4 715.65 141.2C713.65 138.667 712.183 135.933 711.25 133C710.317 129.933 709.85 126.6 709.85 123C709.85 118.6 710.783 114.6 712.65 111C714.65 107.267 717.317 104.067 720.65 101.4C724.117 98.6 728.117 96.4667 732.65 95C737.317 93.5333 742.25 92.8 747.45 92.8C752.383 92.8 757.25 93.4667 762.05 94.8C766.983 96.1333 771.517 98.0667 775.65 100.6C779.783 103.133 783.25 106.133 786.05 109.6L774.25 122.6C771.717 120.067 768.917 117.867 765.85 116C762.917 114 759.917 112.467 756.85 111.4C753.783 110.333 750.983 109.8 748.45 109.8C745.65 109.8 743.117 110.067 740.85 110.6C738.583 111.133 736.65 111.933 735.05 113C733.583 114.067 732.45 115.4 731.65 117C730.85 118.6 730.45 120.4 730.45 122.4C730.583 124.133 730.983 125.8 731.65 127.4C732.45 128.867 733.517 130.133 734.85 131.2C736.317 132.267 738.517 133.4 741.45 134.6C744.383 135.8 748.117 136.933 752.65 138C759.317 139.733 764.783 141.667 769.05 143.8C773.45 145.8 776.917 148.133 779.45 150.8C782.117 153.333 783.983 156.267 785.05 159.6C786.117 162.933 786.65 166.667 786.65 170.8C786.65 176.8 784.917 182.2 781.45 187C778.117 191.667 773.583 195.333 767.85 198C762.117 200.667 755.717 202 748.65 202ZM856.553 202C846.286 202 837.086 199.667 828.953 195C820.953 190.2 814.62 183.733 809.953 175.6C805.286 167.333 802.953 157.933 802.953 147.4C802.953 136.867 805.286 127.533 809.953 119.4C814.62 111.133 820.953 104.667 828.953 100C837.086 95.2 846.286 92.8 856.553 92.8C866.686 92.8 875.753 95.2 883.753 100C891.886 104.667 898.286 111.133 902.953 119.4C907.62 127.533 909.953 136.867 909.953 147.4C909.953 157.933 907.62 167.333 902.953 175.6C898.286 183.733 891.886 190.2 883.753 195C875.753 199.667 866.686 202 856.553 202ZM856.553 183.2C862.82 183.2 868.42 181.667 873.353 178.6C878.286 175.4 882.153 171.133 884.953 165.8C887.753 160.333 889.086 154.2 888.953 147.4C889.086 140.467 887.753 134.333 884.953 129C882.153 123.533 878.286 119.267 873.353 116.2C868.42 113.133 862.82 111.6 856.553 111.6C850.286 111.6 844.62 113.2 839.553 116.4C834.62 119.467 830.753 123.733 827.953 129.2C825.153 134.533 823.82 140.6 823.953 147.4C823.82 154.2 825.153 160.333 827.953 165.8C830.753 171.133 834.62 175.4 839.553 178.6C844.62 181.667 850.286 183.2 856.553 183.2ZM932.4 200V95H953V116.6L949.4 119C950.733 114.333 953.333 110.067 957.2 106.2C961.067 102.2 965.667 99 971 96.6C976.333 94.0667 981.8 92.8 987.4 92.8C995.4 92.8 1002.07 94.4 1007.4 97.6C1012.73 100.667 1016.73 105.4 1019.4 111.8C1022.07 118.2 1023.4 126.267 1023.4 136V200H1002.8V137.4C1002.8 131.4 1002 126.467 1000.4 122.6C998.8 118.6 996.333 115.733 993 114C989.667 112.133 985.533 111.333 980.6 111.6C976.6 111.6 972.933 112.267 969.6 113.6C966.267 114.8 963.333 116.533 960.8 118.8C958.4 121.067 956.467 123.733 955 126.8C953.667 129.733 953 132.933 953 136.4V200H942.8C941.067 200 939.333 200 937.6 200C935.867 200 934.133 200 932.4 200Z" fill="#070707"/>
<defs>
<linearGradient id="paint0_linear_144_89" x1="199.78" y1="53.7499" x2="-17.8375" y2="53.7499" gradientUnits="userSpaceOnUse">
<stop stop-color="#DC143C"/>
<stop offset="1" stop-color="#760B20"/>
</linearGradient>
<linearGradient id="paint1_linear_144_89" x1="51.5662" y1="7.09307" x2="51.5662" y2="215.022" gradientUnits="userSpaceOnUse">
<stop stop-color="#DC143C"/>
<stop offset="1" stop-color="#760B20"/>
</linearGradient>
<linearGradient id="paint2_linear_144_89" x1="-7.11538" y1="206.744" x2="199.23" y2="206.383" gradientUnits="userSpaceOnUse">
<stop offset="0.466667" stop-color="#DC143C"/>
<stop offset="1" stop-color="#760B20"/>
</linearGradient>
</defs>
</svg>
